# 3ds Max Wavefront OBJ Exporter v0.97b - (c)2007 guruware
# File Created: 18.04.2012 20:15:20

mtllib Camaro.mtl

#
# object cylinder
#

v  -12.2882 -2.6148 1.7891
v  -12.2882 -4.1367 0.6834
v  -12.2882 -4.4960 1.7891
v  -12.2882 -4.1367 2.8948
v  -12.2882 -2.0335 -0.0000
v  -12.2882 -3.1961 -0.0000
v  -12.2882 -0.7336 1.7891
v  -12.2882 -1.0929 0.6834
v  -12.2882 -2.0335 3.5782
v  -12.2882 -1.0929 2.8948
v  -12.2882 -3.1961 3.5782
v  -10.9694 -2.6148 1.7891
v  -10.9694 -3.1961 3.5782
v  -10.9694 -4.1367 2.8948
v  -10.9694 -4.4960 1.7891
v  -10.9694 -4.1367 0.6834
v  -10.9694 -3.1961 -0.0000
v  -10.9694 -2.0335 -0.0000
v  -10.9694 -1.0929 0.6834
v  -10.9694 -0.7336 1.7891
v  -10.9694 -1.0929 2.8948
v  -10.9694 -2.0335 3.5782
# 22 vertices

vn -1.0000 0.0000 0.0000
vn 1.0000 0.0000 0.0000
vn 0.0000 -0.8090 0.5878
vn 0.0000 -1.0000 0.0000
vn 0.0000 -0.8090 -0.5878
vn 0.0000 -0.5878 -0.8090
vn 0.0000 0.8090 -0.5878
vn 0.0000 0.5878 -0.8090
vn 0.0000 1.0000 0.0000
vn 0.0000 0.8090 0.5878
vn 0.0000 0.3090 0.9511
vn 0.0000 -0.3090 0.9511
# 12 vertex normals

vt 0.0993 0.2031 0.0000
vt 0.1772 0.1440 0.0000
vt 0.1956 0.2031 0.0000
vt 0.1772 0.2621 0.0000
vt 0.0696 0.1075 0.0000
vt 0.1291 0.1075 0.0000
vt 0.0031 0.2031 0.0000
vt 0.0215 0.1440 0.0000
vt 0.0696 0.2986 0.0000
vt 0.0215 0.2621 0.0000
vt 0.1291 0.2986 0.0000
vt 0.2063 0.1405 0.0000
vt 0.2063 0.1030 0.0000
vt 0.2754 0.1030 0.0000
vt 0.2754 0.1405 0.0000
vt 0.2063 0.1769 0.0000
vt 0.2754 0.1769 0.0000
vt 0.2063 0.2583 0.0000
vt 0.2754 0.2583 0.0000
vt 0.2754 0.2219 0.0000
vt 0.2063 0.2219 0.0000
vt 0.2063 0.2992 0.0000
vt 0.2754 0.2992 0.0000
# 23 texture coords

g cylinder
usemtl ac3dmat1
s 1
f 1/1/1 2/2/1 3/3/1 4/4/1 
f 1/1/1 5/5/1 6/6/1 2/2/1 
f 1/1/1 7/7/1 8/8/1 5/5/1 
f 1/1/1 9/9/1 10/10/1 7/7/1 
f 1/1/1 4/4/1 11/11/1 9/9/1 
f 12/1/2 13/11/2 14/4/2 15/3/2 
f 12/1/2 15/3/2 16/2/2 17/6/2 
f 12/1/2 17/6/2 18/5/2 19/8/2 
f 12/1/2 19/8/2 20/7/2 21/10/2 
f 12/1/2 21/10/2 22/9/2 13/11/2 
f 4/12/3 3/13/4 15/14/4 14/15/3 
f 3/13/4 2/12/5 16/15/5 15/14/4 
f 6/16/6 17/17/6 16/15/5 2/12/5 
f 8/18/7 19/19/7 18/20/8 5/21/8 
f 8/18/7 7/22/9 20/23/9 19/19/7 
f 7/22/9 10/18/10 21/19/10 20/23/9 
f 21/19/10 10/18/10 9/21/11 22/20/11 
f 22/20/11 9/21/11 11/16/12 13/17/12 
f 13/17/12 11/16/12 4/12/3 14/15/3 
# 19 polygons

#
# object cylinder00
#

v  -2.2958 -3.1961 3.5782
v  -3.6146 -3.1961 3.5782
v  -3.6146 -4.1367 2.8948
v  -2.2958 -4.1367 2.8948
v  -2.2958 -2.0335 3.5782
v  -3.6146 -2.0335 3.5782
v  -2.2958 -1.0929 2.8948
v  -3.6146 -1.0929 2.8948
v  -3.6146 -0.7336 1.7891
v  -2.2958 -0.7336 1.7891
v  -3.6146 -1.0929 0.6834
v  -2.2958 -1.0929 0.6834
v  -2.2958 -2.0335 -0.0000
v  -3.6146 -2.0335 -0.0000
v  -3.6146 -3.1961 -0.0000
v  -2.2958 -3.1961 -0.0000
v  -2.2958 -4.1367 0.6834
v  -3.6146 -4.1367 0.6834
v  -3.6146 -4.4960 1.7891
v  -2.2958 -4.4960 1.7891
v  -2.2958 -2.6148 1.7891
v  -3.6146 -2.6148 1.7891
# 22 vertices

vn 0.0000 -0.3090 0.9511
vn 0.0000 -0.8090 0.5878
vn 0.0000 0.3090 0.9511
vn 0.0000 0.8090 0.5878
vn 0.0000 1.0000 0.0000
vn 0.0000 0.8090 -0.5878
vn 0.0000 0.5878 -0.8090
vn 0.0000 -0.5878 -0.8090
vn 0.0000 -0.8090 -0.5878
vn 0.0000 -1.0000 0.0000
vn 1.0000 0.0000 0.0000
vn -1.0000 0.0000 0.0000
# 12 vertex normals

vt 0.2754 0.1769 0.0000
vt 0.2063 0.1769 0.0000
vt 0.2063 0.1405 0.0000
vt 0.2754 0.1405 0.0000
vt 0.2754 0.2219 0.0000
vt 0.2063 0.2219 0.0000
vt 0.2754 0.2583 0.0000
vt 0.2063 0.2583 0.0000
vt 0.2063 0.2992 0.0000
vt 0.2754 0.2992 0.0000
vt 0.2063 0.1030 0.0000
vt 0.2754 0.1030 0.0000
vt 0.0993 0.2031 0.0000
vt 0.0696 0.2986 0.0000
vt 0.1291 0.2986 0.0000
vt 0.1772 0.2621 0.0000
vt 0.0031 0.2031 0.0000
vt 0.0215 0.2621 0.0000
vt 0.0696 0.1075 0.0000
vt 0.0215 0.1440 0.0000
vt 0.1772 0.1440 0.0000
vt 0.1291 0.1075 0.0000
vt 0.1956 0.2031 0.0000
# 23 texture coords

g cylinder00
usemtl ac3dmat1
s 1
f 23/24/13 24/25/13 25/26/14 26/27/14 
f 27/28/15 28/29/15 24/25/13 23/24/13 
f 29/30/16 30/31/16 28/29/15 27/28/15 
f 31/32/17 30/31/16 29/30/16 32/33/17 
f 33/31/18 31/32/17 32/33/17 34/30/18 
f 33/31/18 34/30/18 35/28/19 36/29/19 
f 37/25/20 38/24/20 39/27/21 40/26/21 
f 41/34/22 40/26/21 39/27/21 42/35/22 
f 25/26/14 41/34/22 42/35/22 26/27/14 
f 43/36/23 27/37/23 23/38/23 26/39/23 
f 43/36/23 32/40/23 29/41/23 27/37/23 
f 43/36/23 35/42/23 34/43/23 32/40/23 
f 43/36/23 39/44/23 38/45/23 35/42/23 
f 43/36/23 26/39/23 42/46/23 39/44/23 
f 44/36/24 41/46/24 25/39/24 24/38/24 
f 44/36/24 24/38/24 28/37/24 30/41/24 
f 44/36/24 30/41/24 31/40/24 33/43/24 
f 44/36/24 33/43/24 36/42/24 37/45/24 
f 44/36/24 37/45/24 40/44/24 41/46/24 
# 19 polygons

#
# object cylinder01
#

v  -10.9694 11.2039 3.5782
v  -12.2882 11.2039 3.5782
v  -12.2882 10.2633 2.8948
v  -10.9694 10.2633 2.8948
v  -10.9694 12.3665 3.5782
v  -12.2882 12.3665 3.5782
v  -10.9694 13.3071 2.8948
v  -12.2882 13.3071 2.8948
v  -12.2882 13.6664 1.7891
v  -10.9694 13.6664 1.7891
v  -12.2882 13.3071 0.6834
v  -10.9694 13.3071 0.6834
v  -10.9694 12.3665 -0.0000
v  -12.2882 12.3665 -0.0000
v  -12.2882 11.2039 -0.0000
v  -10.9694 11.2039 -0.0000
v  -10.9694 10.2633 0.6834
v  -12.2882 10.2633 0.6834
v  -12.2882 9.9040 1.7891
v  -10.9694 9.9040 1.7891
v  -10.9694 11.7852 1.7891
v  -12.2882 11.7852 1.7891
# 22 vertices

vn 0.0000 -0.3090 0.9511
vn 0.0000 -0.8090 0.5878
vn 0.0000 0.3090 0.9511
vn 0.0000 0.8090 0.5878
vn 0.0000 1.0000 0.0000
vn 0.0000 0.8090 -0.5878
vn 0.0000 0.5878 -0.8090
vn 0.0000 -0.5878 -0.8090
vn 0.0000 -0.8090 -0.5878
vn 0.0000 -1.0000 0.0000
vn 1.0000 0.0000 0.0000
vn -1.0000 0.0000 0.0000
# 12 vertex normals

vt 0.2754 0.1769 0.0000
vt 0.2063 0.1769 0.0000
vt 0.2063 0.1405 0.0000
vt 0.2754 0.1405 0.0000
vt 0.2754 0.2219 0.0000
vt 0.2063 0.2219 0.0000
vt 0.2754 0.2583 0.0000
vt 0.2063 0.2583 0.0000
vt 0.2063 0.2992 0.0000
vt 0.2754 0.2992 0.0000
vt 0.2063 0.1030 0.0000
vt 0.2754 0.1030 0.0000
vt 0.0993 0.2031 0.0000
vt 0.0696 0.2986 0.0000
vt 0.1291 0.2986 0.0000
vt 0.1772 0.2621 0.0000
vt 0.0031 0.2031 0.0000
vt 0.0215 0.2621 0.0000
vt 0.0696 0.1075 0.0000
vt 0.0215 0.1440 0.0000
vt 0.1772 0.1440 0.0000
vt 0.1291 0.1075 0.0000
vt 0.1956 0.2031 0.0000
# 23 texture coords

g cylinder01
usemtl ac3dmat1
s 1
f 45/47/25 46/48/25 47/49/26 48/50/26 
f 49/51/27 50/52/27 46/48/25 45/47/25 
f 51/53/28 52/54/28 50/52/27 49/51/27 
f 53/55/29 52/54/28 51/53/28 54/56/29 
f 55/54/30 53/55/29 54/56/29 56/53/30 
f 55/54/30 56/53/30 57/51/31 58/52/31 
f 59/48/32 60/47/32 61/50/33 62/49/33 
f 63/57/34 62/49/33 61/50/33 64/58/34 
f 47/49/26 63/57/34 64/58/34 48/50/26 
f 65/59/35 49/60/35 45/61/35 48/62/35 
f 65/59/35 54/63/35 51/64/35 49/60/35 
f 65/59/35 57/65/35 56/66/35 54/63/35 
f 65/59/35 61/67/35 60/68/35 57/65/35 
f 65/59/35 48/62/35 64/69/35 61/67/35 
f 66/59/36 63/69/36 47/62/36 46/61/36 
f 66/59/36 46/61/36 50/60/36 52/64/36 
f 66/59/36 52/64/36 53/63/36 55/66/36 
f 66/59/36 55/66/36 58/65/36 59/68/36 
f 66/59/36 59/68/36 62/67/36 63/69/36 
# 19 polygons

#
# object cylinder02
#

v  -3.6146 11.7852 1.7891
v  -3.6146 10.2633 0.6834
v  -3.6146 9.9040 1.7891
v  -3.6146 10.2633 2.8948
v  -3.6146 12.3665 -0.0000
v  -3.6146 11.2039 -0.0000
v  -3.6146 13.6664 1.7891
v  -3.6146 13.3071 0.6834
v  -3.6146 12.3665 3.5782
v  -3.6146 13.3071 2.8948
v  -3.6146 11.2039 3.5782
v  -2.2958 11.7852 1.7891
v  -2.2958 11.2039 3.5782
v  -2.2958 10.2633 2.8948
v  -2.2958 9.9040 1.7891
v  -2.2958 10.2633 0.6834
v  -2.2958 11.2039 -0.0000
v  -2.2958 12.3665 -0.0000
v  -2.2958 13.3071 0.6834
v  -2.2958 13.6664 1.7891
v  -2.2958 13.3071 2.8948
v  -2.2958 12.3665 3.5782
# 22 vertices

vn -1.0000 0.0000 0.0000
vn 1.0000 0.0000 0.0000
vn 0.0000 -0.8090 0.5878
vn 0.0000 -1.0000 0.0000
vn 0.0000 -0.8090 -0.5878
vn 0.0000 -0.5878 -0.8090
vn 0.0000 0.8090 -0.5878
vn 0.0000 0.5878 -0.8090
vn 0.0000 1.0000 0.0000
vn 0.0000 0.8090 0.5878
vn 0.0000 0.3090 0.9511
vn 0.0000 -0.3090 0.9511
# 12 vertex normals

vt 0.0993 0.2031 0.0000
vt 0.1772 0.1440 0.0000
vt 0.1956 0.2031 0.0000
vt 0.1772 0.2621 0.0000
vt 0.0696 0.1075 0.0000
vt 0.1291 0.1075 0.0000
vt 0.0031 0.2031 0.0000
vt 0.0215 0.1440 0.0000
vt 0.0696 0.2986 0.0000
vt 0.0215 0.2621 0.0000
vt 0.1291 0.2986 0.0000
vt 0.2063 0.1405 0.0000
vt 0.2063 0.1030 0.0000
vt 0.2754 0.1030 0.0000
vt 0.2754 0.1405 0.0000
vt 0.2063 0.1769 0.0000
vt 0.2754 0.1769 0.0000
vt 0.2063 0.2583 0.0000
vt 0.2754 0.2583 0.0000
vt 0.2754 0.2219 0.0000
vt 0.2063 0.2219 0.0000
vt 0.2063 0.2992 0.0000
vt 0.2754 0.2992 0.0000
# 23 texture coords

g cylinder02
usemtl ac3dmat1
s 1
f 67/70/37 68/71/37 69/72/37 70/73/37 
f 67/70/37 71/74/37 72/75/37 68/71/37 
f 67/70/37 73/76/37 74/77/37 71/74/37 
f 67/70/37 75/78/37 76/79/37 73/76/37 
f 67/70/37 70/73/37 77/80/37 75/78/37 
f 78/70/38 79/80/38 80/73/38 81/72/38 
f 78/70/38 81/72/38 82/71/38 83/75/38 
f 78/70/38 83/75/38 84/74/38 85/77/38 
f 78/70/38 85/77/38 86/76/38 87/79/38 
f 78/70/38 87/79/38 88/78/38 79/80/38 
f 70/81/39 69/82/40 81/83/40 80/84/39 
f 69/82/40 68/81/41 82/84/41 81/83/40 
f 72/85/42 83/86/42 82/84/41 68/81/41 
f 74/87/43 85/88/43 84/89/44 71/90/44 
f 74/87/43 73/91/45 86/92/45 85/88/43 
f 73/91/45 76/87/46 87/88/46 86/92/45 
f 87/88/46 76/87/46 75/90/47 88/89/47 
f 88/89/47 75/90/47 77/85/48 79/86/48 
f 79/86/48 77/85/48 70/81/39 80/84/39 
# 19 polygons

#
# object wavefront_
#

v  -7.2867 0.2725 5.1865
v  -7.2867 -4.2897 4.6998
v  -4.7669 0.3138 5.0840
v  -3.0432 0.7669 4.8439
v  -7.2867 0.5311 5.1328
v  -11.5301 0.7669 4.8439
v  -4.7669 -4.2149 4.6065
v  -4.1107 -5.1539 4.0191
v  -9.8065 -4.2149 4.6065
v  -7.2867 -6.1729 4.1997
v  -10.4627 -5.1539 4.0191
v  -9.8065 0.3138 5.0840
v  -7.2867 13.8291 1.2892
v  -12.2197 13.8291 1.2700
v  -12.0155 15.7971 1.7696
v  -7.2867 16.0250 1.8148
v  -11.8141 -5.5311 3.9326
v  -7.2867 3.4440 6.5970
v  -7.2867 9.3687 6.6581
v  -10.3167 9.3687 6.5383
v  -10.3167 3.6058 6.3601
v  -7.2867 13.1723 5.6082
v  -7.2867 15.8530 5.2553
v  -11.8592 15.6979 5.1468
v  -11.5301 13.1723 5.3751
v  -7.2867 -6.5267 1.1931
v  -7.2867 -6.7300 2.7124
v  -12.0793 -6.1737 2.6227
v  -12.0793 -5.9477 1.1786
v  -12.1270 -3.7891 3.4751
v  -12.1929 -1.4712 3.4751
v  -12.2197 10.4869 3.5751
v  -12.1434 13.0117 3.5751
v  -12.0155 16.1839 3.8684
v  -7.2867 16.4118 4.0231
v  -12.1238 -4.6246 0.9143
v  -7.2867 -4.7800 0.9150
v  -12.2197 -0.7836 0.9009
v  -12.2197 9.6919 1.0975
v  -7.2867 9.6919 1.1078
v  -7.2867 -0.7836 0.9009
v  -7.2867 -2.2801 4.4590
v  -7.2867 11.5493 3.8196
v  -4.6969 -5.3727 1.9550
v  -9.8760 -5.3861 1.9836
v  -9.8765 14.0981 2.3644
v  -4.6969 14.0981 2.3644
v  -9.8760 -4.6162 3.9278
v  -9.8765 15.3438 4.1279
v  -4.6969 15.3438 4.1279
v  -4.6969 -4.6028 3.9278
v  -2.5579 15.7971 1.7695
v  -2.3537 13.8291 1.2700
v  -2.7551 -5.4367 3.8634
v  -4.2566 3.6058 6.3601
v  -4.2566 9.3687 6.5383
v  -3.0432 13.1723 5.3751
v  -2.7142 15.6979 5.1468
v  -2.4898 -5.8435 1.1786
v  -2.4898 -6.0695 2.6227
v  -2.4445 -3.7891 3.4751
v  -2.3805 -1.4712 3.4751
v  -2.3537 -0.7836 0.9009
v  -2.3537 10.4869 3.5751
v  -2.4300 13.0117 3.5751
v  -2.5579 16.1839 3.8684
v  -2.4477 -4.5800 0.9143
v  -2.3537 9.6919 1.0975
# 68 vertices

vn 0.0000 0.0533 0.9986
vn -0.0000 -0.1826 0.9832
vn 0.0902 0.1018 0.9907
vn 0.1602 -0.0936 0.9826
vn -0.0000 0.2032 0.9791
vn -0.1602 -0.0936 0.9826
vn 0.3100 -0.1976 0.9300
vn 0.2985 -0.3104 0.9025
vn -0.3100 -0.1976 0.9300
vn 0.0000 -0.3104 0.9506
vn -0.2985 -0.3104 0.9025
vn -0.0902 0.1018 0.9907
vn -0.0000 0.2361 -0.9717
vn 0.0038 0.2457 -0.9693
vn -0.0227 0.7064 -0.7075
vn -0.0000 0.7379 -0.6749
vn 0.0089 -0.1456 0.9893
vn -0.0780 -0.1393 0.9872
vn 0.0000 -0.0245 0.9997
vn 0.0000 -0.0103 0.9999
vn -0.0516 -0.0165 0.9985
vn -0.0796 -0.0308 0.9964
vn 0.0000 0.1152 0.9933
vn 0.0000 0.1305 0.9914
vn -0.0449 0.1004 0.9939
vn -0.0547 0.0828 0.9951
vn 0.0107 -0.9906 -0.1367
vn 0.0112 -0.9921 0.1249
vn -0.1199 -0.9826 0.1420
vn -0.1180 -0.9811 -0.1535
vn 0.0117 -0.9364 0.3508
vn -0.1190 -0.8924 0.4353
vn -0.9913 -0.0257 0.1293
vn -0.8681 -0.0213 0.4959
vn -0.8798 -0.0577 0.4717
vn -0.9415 -0.0176 0.3365
vn -0.9798 0.0067 0.2000
vn -0.9667 -0.0067 0.2559
vn -0.9941 0.0316 0.1036
vn -0.9961 0.0474 0.0750
vn -0.0441 0.9956 0.0823
vn -0.0000 0.9916 0.1295
vn -0.0401 0.9323 0.3593
vn -0.0000 0.9150 0.4035
vn -0.0000 -0.4456 0.8952
vn 0.0000 -0.4491 0.8935
vn -0.0888 -0.4435 0.8919
vn -0.0853 -0.4408 0.8936
vn -0.7620 -0.0200 0.6473
vn -0.7394 -0.0282 0.6727
vn -0.0467 0.2721 0.9611
vn -0.0379 0.2812 0.9589
vn 0.0000 0.2734 0.9619
vn 0.0000 0.2661 0.9640
vn -0.9995 -0.0318 0.0091
vn -0.9997 -0.0257 0.0034
vn -0.9960 -0.0469 0.0756
vn -0.0082 -0.1879 -0.9822
vn -0.0776 0.4589 -0.8851
vn -0.0011 0.3747 -0.9271
vn 0.0016 -0.1572 -0.9876
vn -0.9978 0.0615 0.0227
vn -0.9939 0.1082 -0.0199
vn -1.0000 -0.0021 0.0086
vn -1.0000 0.0000 0.0000
vn 0.0004 -0.5993 -0.8005
vn 0.0017 0.5964 -0.8027
vn 0.0006 0.6648 -0.7471
vn 0.0000 -0.7383 -0.6745
vn 0.0846 -0.6639 -0.7430
vn -0.0016 -0.0872 -0.9962
vn -0.0643 0.6816 -0.7289
vn -0.0213 -0.5912 -0.8062
vn 0.0000 -0.8145 -0.5802
vn 0.0000 0.0792 -0.9969
vn -0.0099 0.6088 -0.7932
vn 0.0013 -0.9425 -0.3343
vn 0.5969 0.0159 -0.8022
vn -0.6022 0.0156 -0.7982
vn -0.8147 0.0120 -0.5798
vn 0.8147 0.0122 -0.5798
vn -1.0000 -0.0000 0.0000
vn 1.0000 0.0000 0.0000
vn 0.0227 0.7064 -0.7075
vn -0.0038 0.2457 -0.9693
vn 0.0975 -0.1509 0.9837
vn 0.0796 -0.0308 0.9964
vn 0.0516 -0.0165 0.9985
vn 0.0547 0.0828 0.9951
vn 0.0449 0.1004 0.9939
vn 0.1389 -0.9784 -0.1531
vn 0.1407 -0.9785 0.1509
vn 0.1380 -0.8829 0.4488
vn 0.9914 -0.0252 0.1285
vn 0.9417 -0.0172 0.3360
vn 0.8798 -0.0577 0.4717
vn 0.8674 -0.0217 0.4971
vn 1.0000 -0.0021 0.0086
vn 0.9667 -0.0067 0.2559
vn 0.9941 0.0316 0.1036
vn 0.9978 0.0615 0.0227
vn 0.9961 0.0474 0.0750
vn 0.9798 0.0067 0.2001
vn 0.0441 0.9956 0.0823
vn 0.0401 0.9323 0.3593
vn 0.0853 -0.4408 0.8936
vn 0.0888 -0.4435 0.8919
vn 0.7394 -0.0282 0.6727
vn 0.7620 -0.0200 0.6473
vn 0.0467 0.2721 0.9611
vn 0.0379 0.2812 0.9589
vn 0.9957 -0.0491 0.0785
vn 0.9997 -0.0257 0.0032
vn 0.9995 -0.0315 0.0085
vn 0.0106 -0.1951 -0.9807
vn 0.0792 0.4617 -0.8835
vn 0.9939 0.1082 -0.0199
vn -0.0847 -0.6638 -0.7431
vn 0.0675 0.6880 -0.7226
vn 0.0000 -0.9661 -0.2581
vn 0.0213 -0.5912 -0.8062
vn 0.0099 0.6088 -0.7932
vn -0.0006 0.9522 -0.3056
vn -0.0013 -0.9425 -0.3343
vn -0.9500 -0.0923 0.2984
vn -0.8973 -0.0459 0.4391
vn 0.9429 -0.1030 0.3167
vn 0.8825 -0.0562 0.4670
# 128 vertex normals

vt 0.4879 0.2855 0.0000
vt 0.4879 0.1824 0.0000
vt 0.5798 0.2865 0.0000
vt 0.6427 0.2974 0.0000
vt 0.4879 0.2917 0.0000
vt 0.3331 0.2974 0.0000
vt 0.5798 0.1842 0.0000
vt 0.6037 0.1616 0.0000
vt 0.3959 0.1842 0.0000
vt 0.4879 0.1443 0.0000
vt 0.3720 0.1616 0.0000
vt 0.3959 0.2865 0.0000
vt 0.2478 0.6139 0.0000
vt 0.0377 0.6139 0.0000
vt 0.0377 0.6310 0.0000
vt 0.2478 0.6310 0.0000
vt 0.3227 0.1525 0.0000
vt 0.7860 0.2826 0.0000
vt 0.7860 0.1632 0.0000
vt 0.6962 0.1646 0.0000
vt 0.6962 0.2799 0.0000
vt 0.4843 0.2411 0.0000
vt 0.4843 0.1319 0.0000
vt 0.6350 0.1705 0.0000
vt 0.6417 0.2746 0.0000
vt 0.7264 0.6047 0.0000
vt 0.7264 0.7190 0.0000
vt 0.5103 0.7190 0.0000
vt 0.5103 0.6047 0.0000
vt 0.7264 0.7807 0.0000
vt 0.5138 0.7758 0.0000
vt 0.8885 0.4395 0.0000
vt 0.6885 0.5075 0.0000
vt 0.1439 0.5338 0.0000
vt 0.7868 0.4395 0.0000
vt 0.0374 0.5175 0.0000
vt 0.2618 0.4445 0.0000
vt 0.1510 0.4445 0.0000
vt 0.0117 0.4591 0.0000
vt 0.0302 0.7544 0.0000
vt 0.2478 0.7544 0.0000
vt 0.0457 0.8189 0.0000
vt 0.2478 0.8234 0.0000
vt 0.7237 0.8202 0.0000
vt 0.7237 0.8982 0.0000
vt 0.5886 0.8902 0.0000
vt 0.5404 0.8134 0.0000
vt 0.5639 0.5777 0.0000
vt 0.3109 0.5888 0.0000
vt 0.0917 0.8407 0.0000
vt 0.1229 0.8924 0.0000
vt 0.2478 0.8987 0.0000
vt 0.2478 0.8407 0.0000
vt 0.9252 0.3125 0.0000
vt 0.9833 0.3256 0.0000
vt 0.9888 0.3972 0.0000
vt 0.8671 0.3278 0.0000
vt 0.8596 0.3275 0.0000
vt 0.8593 0.3547 0.0000
vt 0.8682 0.3547 0.0000
vt 0.1151 0.3301 0.0000
vt 0.0287 0.3549 0.0000
vt 0.7566 0.3118 0.0000
vt 0.2967 0.3216 0.0000
vt 0.8397 0.3270 0.0000
vt 0.7946 0.3270 0.0000
vt 0.7946 0.3547 0.0000
vt 0.8397 0.3547 0.0000
vt 0.8419 0.3271 0.0000
vt 0.8482 0.3547 0.0000
vt 0.8548 0.3275 0.0000
vt 0.7811 0.3274 0.0000
vt 0.7748 0.3547 0.0000
vt 0.7863 0.3547 0.0000
vt 0.7915 0.3270 0.0000
vt 0.7748 0.3270 0.0000
vt 0.8633 0.3692 0.0000
vt 0.8634 0.3401 0.0000
vt 0.7749 0.3401 0.0000
vt 0.7749 0.3692 0.0000
vt 0.8582 0.3401 0.0000
vt 0.7694 0.3401 0.0000
vt 0.7694 0.3692 0.0000
vt 0.8581 0.3692 0.0000
vt 0.4548 0.6310 0.0000
vt 0.4548 0.6139 0.0000
vt 0.6532 0.1548 0.0000
vt 0.8759 0.2799 0.0000
vt 0.8759 0.1646 0.0000
vt 0.3269 0.2746 0.0000
vt 0.3336 0.1705 0.0000
vt 0.9426 0.6047 0.0000
vt 0.9426 0.7190 0.0000
vt 0.9391 0.7725 0.0000
vt 0.4600 0.7544 0.0000
vt 0.4415 0.8189 0.0000
vt 0.9023 0.8134 0.0000
vt 0.8589 0.8902 0.0000
vt 0.3969 0.8407 0.0000
vt 0.3646 0.8924 0.0000
vt 0.9842 0.3972 0.0000
vt 0.9787 0.3256 0.0000
vt 0.9232 0.3125 0.0000
vt 0.8664 0.3816 0.0000
vt 0.8593 0.3818 0.0000
vt 0.8419 0.3822 0.0000
vt 0.8545 0.3818 0.0000
vt 0.8397 0.3824 0.0000
vt 0.7811 0.3819 0.0000
vt 0.7915 0.3824 0.0000
vt 0.7946 0.3824 0.0000
vt 0.7748 0.3824 0.0000
vt 0.9650 0.4622 0.0000
vt 0.9608 0.4588 0.0000
# 114 texture coords

g wavefront_
usemtl ac3dmat1
s 1
f 89/93/49 90/94/50 91/95/51 92/96/52 
f 92/96/52 93/97/53 94/98/54 89/93/49 
f 91/95/51 90/94/50 95/99/55 96/100/56 
f 96/100/56 92/96/52 91/95/51 
f 95/99/55 90/94/50 97/101/57 98/102/58 
f 98/102/58 96/100/56 95/99/55 
f 89/93/49 94/98/54 99/103/59 100/104/60 
f 100/104/60 99/103/59 98/102/58 97/101/57 
f 100/104/60 97/101/57 90/94/50 89/93/49 
f 101/105/61 102/106/62 103/107/63 104/108/64 
f 98/102/65 94/98/66 105/109/66 
f 106/110/67 107/111/68 108/112/69 109/113/70 
f 110/114/71 111/115/72 112/116/73 113/117/74 
f 114/118/75 115/119/76 116/120/77 117/121/78 
f 115/119/76 98/122/79 105/123/80 116/120/77 
f 118/124/81 94/125/82 113/126/83 119/127/84 
f 119/127/84 113/126/83 112/128/85 120/129/86 
f 121/130/87 120/129/86 112/128/85 122/131/88 
f 103/107/63 122/132/89 123/133/90 104/108/64 
f 122/132/89 112/134/91 111/135/92 123/133/90 
f 93/136/93 106/137/94 109/138/95 94/139/96 
f 94/125/82 109/140/97 108/141/98 113/126/83 
f 113/142/99 108/143/100 107/144/101 110/145/102 
f 118/124/81 124/146/103 117/147/104 116/148/105 
f 117/149/106 124/150/107 125/151/108 114/152/109 
f 102/153/110 121/130/87 122/131/88 103/154/111 
f 126/155/112 119/127/84 120/129/86 127/156/113 
f 126/157/114 127/158/115 128/159/116 129/160/117 
f 119/161/118 129/160/117 130/162/119 118/163/120 
f 130/162/119 125/151/108 124/150/107 118/163/120 
f 129/160/117 119/161/118 126/157/114 
f 121/164/121 101/165/122 131/166/123 120/167/124 
f 128/159/116 127/158/115 120/167/124 131/166/123 
f 101/165/122 121/164/121 102/168/125 
f 132/169/126 133/170/127 134/171/128 135/172/129 
f 133/170/127 136/173/130 137/174/130 134/171/128 
f 135/172/129 138/175/131 139/176/131 132/169/126 
f 101/105/61 104/108/64 123/133/90 140/177/132 
f 140/177/132 141/178/133 101/105/61 
f 98/102/65 142/179/134 92/96/134 
f 106/110/67 143/180/135 144/181/136 107/111/68 
f 110/114/71 145/182/137 146/183/138 111/115/72 
f 114/118/75 147/184/139 148/185/140 115/119/76 
f 115/119/76 148/185/140 142/186/141 98/122/79 
f 149/124/142 150/127/143 145/126/144 92/125/145 
f 150/127/143 151/155/146 152/129/147 145/126/144 
f 153/130/148 141/153/149 154/131/150 146/128/151 
f 152/129/147 153/130/148 146/128/151 145/126/144 
f 123/133/90 111/135/92 154/187/152 140/177/132 
f 111/135/92 146/188/153 154/187/152 
f 93/136/93 92/189/154 143/190/155 106/137/94 
f 92/125/145 145/126/144 144/141/156 143/140/157 
f 145/191/158 110/145/102 107/144/101 144/192/159 
f 149/124/142 148/193/160 147/194/161 155/195/162 
f 147/196/163 114/152/109 125/151/108 155/197/164 
f 141/153/149 140/154/165 154/131/150 
f 151/155/146 156/156/131 152/129/147 
f 150/198/166 149/199/167 155/197/164 130/162/119 
f 155/197/164 125/151/108 130/162/119 
f 129/160/117 151/200/168 150/198/166 130/162/119 
f 153/201/169 152/202/170 128/159/116 131/166/123 
f 152/202/170 156/203/171 128/159/116 
f 101/165/122 141/204/172 153/201/169 131/166/123 
f 105/205/173 94/125/82 118/124/174 116/148/105 
f 142/206/175 148/193/160 149/124/176 92/125/145 
# 53 polygons - 12 triangles

